<mxfile host="Electron" agent="Mozilla/5.0 (Windows NT 10.0; Win64; x64) AppleWebKit/537.36 (KHTML, like Gecko) draw.io/25.0.2 Chrome/128.0.6613.186 Electron/32.2.5 Safari/537.36" version="25.0.2">
  <diagram name="Страница — 1" id="i1axx7sGHIdYhrKXGZvl">
    <mxGraphModel dx="398" dy="271" grid="1" gridSize="10" guides="1" tooltips="1" connect="1" arrows="1" fold="1" page="1" pageScale="1" pageWidth="827" pageHeight="1169" math="0" shadow="0">
      <root>
        <mxCell id="0" />
        <mxCell id="1" parent="0" />
        <mxCell id="EYtnRmbGj9ztNVji6C3--20" style="edgeStyle=orthogonalEdgeStyle;rounded=0;orthogonalLoop=1;jettySize=auto;html=1;" parent="1" source="EYtnRmbGj9ztNVji6C3--1" target="EYtnRmbGj9ztNVji6C3--19" edge="1">
          <mxGeometry relative="1" as="geometry" />
        </mxCell>
        <mxCell id="EYtnRmbGj9ztNVji6C3--1" value="Выбрать лечение для растения" style="rounded=0;whiteSpace=wrap;html=1;" parent="1" vertex="1">
          <mxGeometry x="280" y="480" width="240" height="160" as="geometry" />
        </mxCell>
        <mxCell id="EYtnRmbGj9ztNVji6C3--2" value="0" style="text;html=1;align=center;verticalAlign=middle;whiteSpace=wrap;rounded=0;" parent="1" vertex="1">
          <mxGeometry x="470" y="610" width="60" height="30" as="geometry" />
        </mxCell>
        <mxCell id="EYtnRmbGj9ztNVji6C3--4" value="&lt;font style=&quot;font-size: 10px;&quot;&gt;Координаты поражения&lt;/font&gt;" style="text;html=1;align=center;verticalAlign=middle;whiteSpace=wrap;rounded=0;" parent="1" vertex="1">
          <mxGeometry x="9.28" y="600" width="60" height="30" as="geometry" />
        </mxCell>
        <mxCell id="EYtnRmbGj9ztNVji6C3--5" value="Вид болезни" style="text;html=1;align=center;verticalAlign=middle;whiteSpace=wrap;rounded=0;" parent="1" vertex="1">
          <mxGeometry x="9.76" y="560" width="60" height="30" as="geometry" />
        </mxCell>
        <mxCell id="EYtnRmbGj9ztNVji6C3--6" value="Вид растения" style="text;html=1;align=center;verticalAlign=middle;whiteSpace=wrap;rounded=0;" parent="1" vertex="1">
          <mxGeometry x="9.76" y="525" width="60" height="30" as="geometry" />
        </mxCell>
        <mxCell id="EYtnRmbGj9ztNVji6C3--8" style="edgeStyle=orthogonalEdgeStyle;rounded=0;orthogonalLoop=1;jettySize=auto;html=1;" parent="1" source="EYtnRmbGj9ztNVji6C3--7" edge="1">
          <mxGeometry relative="1" as="geometry">
            <Array as="points">
              <mxPoint x="239.76" y="505" />
              <mxPoint x="239.76" y="505" />
            </Array>
            <mxPoint x="279.76" y="505" as="targetPoint" />
          </mxGeometry>
        </mxCell>
        <mxCell id="EYtnRmbGj9ztNVji6C3--7" value="Базы данных парника" style="text;html=1;align=center;verticalAlign=middle;whiteSpace=wrap;rounded=0;" parent="1" vertex="1">
          <mxGeometry x="-0.24" y="490" width="80" height="30" as="geometry" />
        </mxCell>
        <mxCell id="EYtnRmbGj9ztNVji6C3--9" style="edgeStyle=orthogonalEdgeStyle;rounded=0;orthogonalLoop=1;jettySize=auto;html=1;" parent="1" source="EYtnRmbGj9ztNVji6C3--6" edge="1">
          <mxGeometry relative="1" as="geometry">
            <mxPoint x="279.76" y="540" as="targetPoint" />
            <Array as="points">
              <mxPoint x="279.76" y="540" />
            </Array>
          </mxGeometry>
        </mxCell>
        <mxCell id="EYtnRmbGj9ztNVji6C3--10" style="edgeStyle=orthogonalEdgeStyle;rounded=0;orthogonalLoop=1;jettySize=auto;html=1;entryX=0.001;entryY=0.534;entryDx=0;entryDy=0;entryPerimeter=0;" parent="1" source="EYtnRmbGj9ztNVji6C3--5" edge="1">
          <mxGeometry relative="1" as="geometry">
            <Array as="points" />
            <mxPoint x="280" y="575.44" as="targetPoint" />
          </mxGeometry>
        </mxCell>
        <mxCell id="EYtnRmbGj9ztNVji6C3--11" style="edgeStyle=orthogonalEdgeStyle;rounded=0;orthogonalLoop=1;jettySize=auto;html=1;entryX=0.003;entryY=0.938;entryDx=0;entryDy=0;entryPerimeter=0;" parent="1" source="EYtnRmbGj9ztNVji6C3--4" edge="1">
          <mxGeometry relative="1" as="geometry">
            <mxPoint x="280" y="615.0799999999999" as="targetPoint" />
            <Array as="points" />
          </mxGeometry>
        </mxCell>
        <mxCell id="EYtnRmbGj9ztNVji6C3--14" style="edgeStyle=orthogonalEdgeStyle;rounded=0;orthogonalLoop=1;jettySize=auto;html=1;" parent="1" source="EYtnRmbGj9ztNVji6C3--12" edge="1">
          <mxGeometry relative="1" as="geometry">
            <mxPoint x="350" y="640" as="targetPoint" />
          </mxGeometry>
        </mxCell>
        <mxCell id="EYtnRmbGj9ztNVji6C3--12" value="Оператор" style="text;html=1;align=center;verticalAlign=middle;whiteSpace=wrap;rounded=0;" parent="1" vertex="1">
          <mxGeometry x="320" y="760" width="60" height="30" as="geometry" />
        </mxCell>
        <mxCell id="EYtnRmbGj9ztNVji6C3--17" style="edgeStyle=orthogonalEdgeStyle;rounded=0;orthogonalLoop=1;jettySize=auto;html=1;entryX=0.25;entryY=0;entryDx=0;entryDy=0;" parent="1" source="EYtnRmbGj9ztNVji6C3--15" target="EYtnRmbGj9ztNVji6C3--1" edge="1">
          <mxGeometry relative="1" as="geometry" />
        </mxCell>
        <mxCell id="EYtnRmbGj9ztNVji6C3--15" value="&lt;font style=&quot;font-size: 10px;&quot;&gt;Методология по лечению сельскохозяйственных культур&lt;/font&gt;" style="text;html=1;align=center;verticalAlign=middle;whiteSpace=wrap;rounded=0;" parent="1" vertex="1">
          <mxGeometry x="280" y="330" width="120" height="60" as="geometry" />
        </mxCell>
        <mxCell id="EYtnRmbGj9ztNVji6C3--16" value="&lt;font style=&quot;font-size: 10px;&quot;&gt;Руководства по применению лекарственных препаратов&lt;/font&gt;" style="text;html=1;align=center;verticalAlign=middle;whiteSpace=wrap;rounded=0;" parent="1" vertex="1">
          <mxGeometry x="420" y="330" width="90" height="60" as="geometry" />
        </mxCell>
        <mxCell id="EYtnRmbGj9ztNVji6C3--18" style="edgeStyle=orthogonalEdgeStyle;rounded=0;orthogonalLoop=1;jettySize=auto;html=1;entryX=0.773;entryY=0.001;entryDx=0;entryDy=0;entryPerimeter=0;" parent="1" source="EYtnRmbGj9ztNVji6C3--16" target="EYtnRmbGj9ztNVji6C3--1" edge="1">
          <mxGeometry relative="1" as="geometry" />
        </mxCell>
        <mxCell id="EYtnRmbGj9ztNVji6C3--19" value="&lt;font style=&quot;font-size: 11px;&quot;&gt;Инструкции к лечению растения&lt;/font&gt;" style="text;html=1;align=center;verticalAlign=middle;resizable=0;points=[];autosize=1;strokeColor=none;fillColor=none;" parent="1" vertex="1">
          <mxGeometry x="615" y="545" width="190" height="30" as="geometry" />
        </mxCell>
        <mxCell id="EYtnRmbGj9ztNVji6C3--23" style="edgeStyle=orthogonalEdgeStyle;rounded=0;orthogonalLoop=1;jettySize=auto;html=1;" parent="1" source="EYtnRmbGj9ztNVji6C3--24" edge="1">
          <mxGeometry relative="1" as="geometry">
            <mxPoint x="460" y="640" as="targetPoint" />
          </mxGeometry>
        </mxCell>
        <mxCell id="EYtnRmbGj9ztNVji6C3--24" value="Программа" style="text;html=1;align=center;verticalAlign=middle;whiteSpace=wrap;rounded=0;" parent="1" vertex="1">
          <mxGeometry x="430" y="760" width="60" height="30" as="geometry" />
        </mxCell>
      </root>
    </mxGraphModel>
  </diagram>
</mxfile>
